<svg xmlns="http://www.w3.org/2000/svg" width="136" height="24"><path fill="#196bde" fill-rule="evenodd" d="M49.7 1v22.29h-1.51V1zm-15.127.016v9.576a7.08 7.08 0 0 1 4.688-1.807c3.146 0 6.182 2.156 6.182 7.356 0 5.374-3.413 7.4-7.063 7.4A10.9 10.9 0 0 1 33 22.069V1.016zm39.818 7.811h.261c3.73.093 6.3 3.049 5.925 7.4l-.026.268H69.194a5.5 5.5 0 0 0 5.568 5.6q.144.006.287.006a8.7 8.7 0 0 0 3.858-.958l.275-.142.55 1.332a9.93 9.93 0 0 1-4.7 1.228q-.173 0-.349-.007c-4.75-.154-7.183-3.91-7.03-7.921a6.666 6.666 0 0 1 6.738-6.806m55.033.195V4.234l-1.573.004v4.788h-2.532v1.348h2.532v7.911c0 3.663 2.03 5.232 4.578 5.232a8.5 8.5 0 0 0 3.146-.634l-.456-1.4a5.8 5.8 0 0 1-2.659.555c-2.061-.079-3.036-1.568-3.036-3.868v-7.8h4.688V9.022zm-24.68-.222c3.649 0 6.811 2.727 6.811 7.34 0 4.724-3.178 7.372-6.811 7.372-4.074 0-6.811-3.3-6.811-7.372 0-4.328 3.02-7.34 6.811-7.34m-49.8 8.922v-8.7l-1.574-.001v8.862c0 4.344 2.139 5.628 4.373 5.628a6.69 6.69 0 0 0 5.38-2.98v2.759H64.7V9.018h-1.58v9.893c-1.321 1.95-3.02 3.123-4.876 3.123-1.648 0-3.3-.919-3.3-4.312m64.146-8.89a8.4 8.4 0 0 1 3.932 1.031l-.6 1.252a7 7 0 0 0-3.288-.84c-2.344 0-3.4 1.157-3.4 2.362 0 1.413 1.461 2.01 3.395 2.798q.257.104.522.214c3.413 1.348 4.137 2.886 4.137 4.2 0 2.235-2.076 3.646-4.829 3.646a8.8 8.8 0 0 1-4.5-1.3l.676-1.363a6.8 6.8 0 0 0 3.775 1.2c1.479 0 3.319-.618 3.3-2.124 0-1.284-1.353-2.283-3.523-3.139-2.407-.967-4.514-1.855-4.514-4.138s2.132-3.8 4.916-3.8zm-33.41 2.984v-10.8h-1.574v22.277h1.573v-9.8c.961-1.618 2.8-3.234 4.861-3.218 1.699.015 3.272 1.109 3.272 4.2v8.815h1.558v-9.147c0-3.187-1.669-5.343-4.5-5.343a6.29 6.29 0 0 0-5.19 3.016m-51.107.645a6.32 6.32 0 0 1 4.546-2.219c2.658 0 4.735 2.158 4.75 5.916 0 4.265-2.69 5.977-5.584 5.977a8.2 8.2 0 0 1-3.712-.935zm70.171-2.187c-3.382 0-5.222 2.7-5.222 5.866 0 3.155 1.825 5.9 5.222 5.9 3.288 0 5.238-2.759 5.238-5.9 0-3.171-1.935-5.866-5.238-5.866m-35.466 4.694a5.07 5.07 0 0 1 5.234-4.71 4.677 4.677 0 0 1 4.577 4.946h-9.831zm5.05-4.713zM23.772 6.691V0h-6.641v6.691zm0 1.963v6.692h-6.641V8.654zM6.638 24v-6.692H0V24zm8.567-6.692V24H8.564v-6.692zm8.567 0V24h-6.641v-6.692zm-8.567-1.962V8.654H8.564v6.692zM6.638 8.654v6.692H0V8.654zM15.2 0v6.691H8.564V0zM6.638 6.691V0H0v6.691z"/></svg>
